<svg width="24" height="24" viewBox="0 0 24 24" fill="none" xmlns="http://www.w3.org/2000/svg">
<path d="M8.78027 7.2207L16.46 17.4004H15.2695L7.50391 7.2207H8.78027Z" fill="black"/>
<path fill-rule="evenodd" clip-rule="evenodd" d="M19 1C21.2091 1 23 2.79086 23 5V19C23 21.2091 21.2091 23 19 23H5C2.79086 23 1 21.2091 1 19V5C1 2.79086 2.79086 1 5 1H19ZM16.0254 6L12.4863 10.0537L9.42969 6.00098H5L10.291 12.9385L5.27539 18.6885H7.42383L11.2939 14.2529L14.6797 18.6885H19L13.4824 11.374L18.1719 6H16.0254Z" fill="black"/>
</svg>
