<svg width="160" height="160" viewBox="0 0 160 160" fill="none" xmlns="http://www.w3.org/2000/svg">
<path d="M80 117C85.5228 117 90 121.477 90 127C90 132.523 85.5228 137 80 137C74.4772 137 70 132.523 70 127C70 121.477 74.4772 117 80 117Z" fill="black"/>
<path d="M80 24C85.5228 24 90 28.4772 90 34V102C90 107.523 85.5228 112 80 112C74.4772 112 70 107.523 70 102V34C70 28.4772 74.4772 24 80 24Z" fill="black"/>
<path fill-rule="evenodd" clip-rule="evenodd" d="M80 0C124.183 0 160 35.8172 160 80C160 124.183 124.183 160 80 160C35.8172 160 0 124.183 0 80C0 35.8172 35.8172 0 80 0ZM80 12C42.4446 12 12 42.4446 12 80C12 117.555 42.4446 148 80 148C117.555 148 148 117.555 148 80C148 42.4446 117.555 12 80 12Z" fill="black"/>
</svg>
