<svg width="104" height="78" viewBox="0 0 104 78" fill="none" xmlns="http://www.w3.org/2000/svg">
<g clip-path="url(#clip0_2_26)">
<path d="M0 0H104V78H0" fill="#BD3D44"/>
<path d="M0 8.98535H104ZM0 20.9616H104ZM0 32.9866H104ZM0 45.0116H104ZM0 57.0366H104ZM0 69.0616H104Z" fill="black"/>
<path d="M0 5.97949V11.992H104V5.97949H0ZM0 17.9557V23.9682H104V17.9557H0ZM0 29.9807V35.9932H104V29.9807H0ZM0 42.0057V48.0182H104V42.0057H0ZM0 54.0307V60.0432H104V54.0307H0ZM0 66.0557V72.0682H104V66.0557H0Z" fill="white"/>
<path d="M0 0H59.28V42.0062H0" fill="#192F5D"/>
<path d="M54.275 35.4246L55.7375 39.8121L52 37.0496H56.55L52.8125 39.8121L54.275 35.4246ZM44.525 35.4246L45.9875 39.8121L42.25 37.0496H46.8L43.0625 39.8121L44.525 35.4246ZM34.6125 35.4246L36.075 39.8121L32.3375 37.0496H36.8875L33.15 39.8121L34.6125 35.4246ZM24.7 35.4246L26.1625 39.8121L22.425 37.0496H26.975L23.2375 39.8121L24.7 35.4246ZM14.7875 35.4246L16.25 39.8121L12.5125 37.0496H17.0625L13.325 39.8121L14.7875 35.4246ZM4.87504 35.4246L6.33754 39.8121L2.60004 37.0496H7.15004L3.41254 39.8121L4.87504 35.4246ZM49.4 31.1996L50.8625 35.5871L47.125 32.8246H51.675L47.9375 35.5871L49.4 31.1996ZM39.4875 31.1996L40.95 35.5871L37.2125 32.8246H41.7625L38.025 35.5871L39.4875 31.1996ZM29.7375 31.1996L31.2 35.5871L27.4625 32.8246H32.0125L28.275 35.5871L29.7375 31.1996ZM19.825 31.1996L21.2875 35.5871L17.55 32.8246H22.1L18.3625 35.5871L19.825 31.1996ZM9.91254 31.1996L11.375 35.5871L7.63754 32.8246H12.1875L8.45004 35.5871L9.91254 31.1996ZM54.275 26.9746L55.7375 31.3621L52 28.5996H56.55L52.8125 31.3621L54.275 26.9746ZM44.525 26.9746L45.9875 31.3621L42.25 28.5996H46.8L43.0625 31.3621L44.525 26.9746ZM34.6125 26.9746L36.075 31.3621L32.3375 28.5996H36.8875L33.15 31.3621L34.6125 26.9746ZM24.7 26.9746L26.1625 31.3621L22.425 28.5996H26.975L23.2375 31.3621L24.7 26.9746ZM14.7875 26.9746L16.25 31.3621L12.5125 28.5996H17.0625L13.325 31.3621L14.7875 26.9746ZM4.87504 26.9746L6.33754 31.3621L2.60004 28.5996H7.15004L3.41254 31.3621L4.87504 26.9746ZM49.4 22.9121L50.8625 27.2996L47.125 24.5371H51.675L47.9375 27.2996L49.4 22.9121ZM39.4875 22.9121L40.95 27.2996L37.2125 24.5371H41.7625L38.025 27.2996L39.4875 22.9121ZM29.7375 22.9121L31.2 27.2996L27.4625 24.5371H32.0125L28.275 27.2996L29.7375 22.9121ZM19.825 22.9121L21.2875 27.2996L17.55 24.5371H22.1L18.3625 27.2996L19.825 22.9121ZM9.91254 22.9121L11.375 27.2996L7.63754 24.5371H12.1875L8.45004 27.2996L9.91254 22.9121ZM54.275 18.6871L55.7375 23.0746L52 20.3121H56.55L52.8125 23.0746L54.275 18.6871ZM44.525 18.6871L45.9875 23.0746L42.25 20.3121H46.8L43.0625 23.0746L44.525 18.6871ZM34.6125 18.6871L36.075 23.0746L32.3375 20.3121H36.8875L33.15 23.0746L34.6125 18.6871ZM24.7 18.6871L26.1625 23.0746L22.425 20.3121H26.975L23.2375 23.0746L24.7 18.6871ZM14.7875 18.6871L16.25 23.0746L12.5125 20.3121H17.0625L13.325 23.0746L14.7875 18.6871ZM4.87504 18.6871L6.33754 23.0746L2.60004 20.3121H7.15004L3.41254 23.0746L4.87504 18.6871ZM49.4 14.4621L50.8625 18.8496L47.125 16.0871H51.675L47.9375 18.8496L49.4 14.4621ZM39.4875 14.4621L40.95 18.8496L37.2125 16.0871H41.7625L38.025 18.8496L39.4875 14.4621ZM29.7375 14.4621L31.2 18.8496L27.4625 16.0871H32.0125L28.275 18.8496L29.7375 14.4621ZM19.825 14.4621L21.2875 18.8496L17.55 16.0871H22.1L18.3625 18.8496L19.825 14.4621ZM9.91254 14.4621L11.375 18.8496L7.63754 16.0871H12.1875L8.45004 18.8496L9.91254 14.4621ZM54.275 10.2371L55.7375 14.6246L52 11.8621H56.55L52.8125 14.6246L54.275 10.2371ZM44.525 10.2371L45.9875 14.6246L42.25 11.8621H46.8L43.0625 14.6246L44.525 10.2371ZM34.6125 10.2371L36.075 14.6246L32.3375 11.8621H36.8875L33.15 14.6246L34.6125 10.2371ZM24.7 10.2371L26.1625 14.6246L22.425 11.8621H26.975L23.2375 14.6246L24.7 10.2371ZM14.7875 10.2371L16.25 14.6246L12.5125 11.8621H17.0625L13.325 14.6246L14.7875 10.2371ZM4.87504 10.2371L6.33754 14.6246L2.60004 11.8621H7.15004L3.41254 14.6246L4.87504 10.2371ZM49.4 6.01211L50.8625 10.3996L47.125 7.63711H51.675L47.9375 10.3996L49.4 6.01211ZM39.4875 6.01211L40.95 10.3996L37.2125 7.63711H41.7625L38.025 10.3996L39.4875 6.01211ZM29.7375 6.01211L31.2 10.3996L27.4625 7.63711H32.0125L28.275 10.3996L29.7375 6.01211ZM19.825 6.01211L21.2875 10.3996L17.55 7.63711H22.1L18.3625 10.3996L19.825 6.01211ZM9.91254 6.01211L11.375 10.3996L7.63754 7.63711H12.1875L8.45004 10.3996L9.91254 6.01211ZM54.275 1.78711L55.7375 6.17461L52 3.41211H56.55L52.8125 6.17461L54.275 1.78711ZM44.525 1.78711L45.9875 6.17461L42.25 3.41211H46.8L43.0625 6.17461L44.525 1.78711ZM34.6125 1.78711L36.075 6.17461L32.3375 3.41211H36.8875L33.15 6.17461L34.6125 1.78711ZM24.7 1.78711L26.1625 6.17461L22.425 3.41211H26.975L23.2375 6.17461L24.7 1.78711ZM14.7875 1.78711L16.25 6.17461L12.5125 3.41211H17.0625L13.325 6.17461L14.7875 1.78711ZM4.87504 1.78711L6.33754 6.17461L2.60004 3.41211H7.15004L3.41254 6.17461L4.87504 1.78711Z" fill="white"/>
</g>
<defs>
<clipPath id="clip0_2_26">
<rect width="104" height="78" rx="5.2" fill="white"/>
</clipPath>
</defs>
</svg>
