<svg width="42" height="28" viewBox="0 0 42 28" fill="none" xmlns="http://www.w3.org/2000/svg">
<path d="M0 24C0 26.2091 1.79086 28 4 28H38C40.2091 28 42 26.2091 42 24V4C42 1.79086 40.2091 0 38 0H4C1.79086 0 0 1.79086 0 4V24Z" fill="#006FCF"/>
<path d="M23.699 23.9783L35.0458 24.0018L36.8278 22.0585L38.6226 23.9944H41.9999V21.1592L39.8846 18.9295L41.9999 16.72V13.9437L23.699 13.9277V23.9783Z" fill="white"/>
<path fill-rule="evenodd" clip-rule="evenodd" d="M24.902 22.8748V15.0322H31.7051V16.8388H27.1046V18.0652H31.5954V19.8419H27.1046V21.0465H31.7051V22.8748L24.902 22.8748Z" fill="#006FCF"/>
<path d="M39.198 15.0323L36.8911 17.518L34.5909 15.0323H31.6771L35.4416 18.949L31.6772 22.8748H34.5117L36.8288 20.3642L39.1699 22.8748H41.9865V22.7635L38.3022 18.949L41.9865 15.0941V15.0323H39.198Z" fill="#006FCF"/>
<path d="M37.8194 5L36.877 7.57659L35.9379 5H30.4917V8.43898L28.9422 5H24.5308L20 15.0506H41.9781V5H37.8194Z" fill="white"/>
<path fill-rule="evenodd" clip-rule="evenodd" d="M25.6832 10.6037L26.7509 8.10926L27.8178 10.6037H25.6832ZM25.3773 6.09547L21.8172 13.9315H24.259L24.9306 12.3624H28.5699L29.2411 13.9315H31.7435L28.1982 6.09547H25.3773Z" fill="#006FCF"/>
<path d="M31.6985 13.9307L33.8573 13.9308V8.54823L35.9053 13.9308H37.8456L39.852 8.5665V13.9491L41.9777 13.9308V6.0948H38.6744L36.8968 10.9237L35.1308 6.10636L31.6985 6.09477V13.9307Z" fill="#006FCF"/>
</svg>
