<svg width="42" height="28" viewBox="0 0 42 28" fill="none" xmlns="http://www.w3.org/2000/svg">
<rect x="0.175" y="0.175" width="41.65" height="27.65" rx="3.325" fill="white"/>
<rect x="0.175" y="0.175" width="41.65" height="27.65" rx="3.325" stroke="#B4B4B4" stroke-width="0.35"/>
<path d="M23.3151 22.7499C28.0517 22.7728 32.375 18.8492 32.375 14.076C32.375 8.85623 28.0517 5.24826 23.3151 5.25H19.2387C14.4454 5.24826 10.5 8.85731 10.5 14.076C10.5 18.8502 14.4454 22.7728 19.2387 22.7499H23.3151Z" fill="#0079BE"/>
<path d="M19.2584 5.97461C14.8784 5.976 11.3292 9.56105 11.3281 13.9857C11.3292 18.4096 14.8784 21.9943 19.2584 21.9957C23.6395 21.9943 27.1895 18.4096 27.1901 13.9857C27.1895 9.56105 23.6395 5.976 19.2584 5.97461ZM14.2316 13.9857C14.2358 11.8236 15.573 9.97983 17.4587 9.24716V18.7231C15.573 17.9909 14.2357 16.1482 14.2316 13.9857ZM21.0575 18.7252V9.24685C22.9439 9.97775 24.2832 11.8225 24.2866 13.9857C24.2832 16.1495 22.9439 17.9929 21.0575 18.7252Z" fill="white"/>
</svg>
