<svg width="42" height="28" viewBox="0 0 42 28" fill="none" xmlns="http://www.w3.org/2000/svg">
<rect width="42" height="28" rx="4" fill="white"/>
<path d="M6 28C23.6352 25.6955 34.0304 22.2357 42 14L41.9978 24.0009C41.9974 26.2097 40.2066 28 37.9978 28H6Z" fill="#F07C00"/>
<path d="M7.35431 7.11133H6V11.8345H7.33567C8.04945 11.8345 8.56214 11.6687 9.02024 11.2836C9.55158 10.8423 9.8805 10.1629 9.8805 9.46356C9.8805 8.08485 8.8378 7.11133 7.35431 7.11133ZM8.41699 10.6591C8.12402 10.9158 7.75781 11.0268 7.15456 11.0268H6.91619V7.90165H7.15456C7.7405 7.90165 8.10671 8.0113 8.41699 8.28811C8.74592 8.58231 8.92969 9.0236 8.92969 9.4649C8.92836 9.92358 8.74592 10.3823 8.41699 10.6591Z" fill="black"/>
<path d="M11.2195 7.11133H10.3047V11.8345H11.2195V7.11133Z" fill="black"/>
<path d="M13.4707 8.91113C12.9221 8.70921 12.7569 8.58083 12.7569 8.32274C12.7569 8.02854 13.0499 7.8079 13.4347 7.8079C13.7091 7.8079 13.9288 7.91755 14.1858 8.19436L14.6612 7.55114C14.2591 7.20212 13.801 7.01758 13.2696 7.01758C12.428 7.01758 11.8048 7.60597 11.8048 8.37757C11.8048 9.03951 12.0977 9.36981 12.958 9.68273C13.3242 9.81111 13.5067 9.90338 13.5985 9.9582C13.781 10.0679 13.8729 10.2524 13.8729 10.4543C13.8729 10.8408 13.5613 11.1163 13.1591 11.1163C12.7196 11.1163 12.3721 10.8956 12.1523 10.4918L11.5664 11.0427C11.9872 11.6672 12.4999 11.9427 13.195 11.9427C14.1472 11.9427 14.8237 11.2995 14.8237 10.3808C14.825 9.64662 14.5147 9.2976 13.4707 8.91113Z" fill="black"/>
<path d="M15.1211 9.48061C15.1211 10.878 16.2011 11.9438 17.61 11.9438C18.0122 11.9438 18.3424 11.8703 18.7632 11.6684V10.5838C18.397 10.9516 18.0681 11.0987 17.6473 11.0987C16.7138 11.0987 16.0732 10.418 16.0732 9.46323C16.0732 8.56325 16.7511 7.84515 17.6113 7.84515C18.0508 7.84515 18.3797 7.99225 18.7646 8.37871V7.2942C18.3624 7.09227 18.0321 7 17.63 7C16.2384 6.99866 15.1211 8.1019 15.1211 9.48061Z" fill="black"/>
<path d="M26.1855 10.2913L24.9403 7.11133H23.9336L25.9284 11.9642H26.4238L28.4546 7.11133H27.4665L26.1855 10.2913Z" fill="black"/>
<path d="M28.8789 11.8345H31.4783V11.0442H29.7951V9.75776H31.4237V8.94872H29.7951V7.90165H31.4783V7.11133H28.8789V11.8345Z" fill="black"/>
<path d="M35.1235 8.50485C35.1235 7.62227 34.5189 7.10742 33.4576 7.10742H32.0859V11.8306H33.0008V9.93973H33.1286L34.3911 11.8333H35.5257L34.0435 9.84746C34.74 9.70036 35.1235 9.22296 35.1235 8.50485ZM33.2751 9.27779H33.0008V7.84425H33.2751C33.8424 7.84425 34.154 8.08362 34.154 8.5423C34.1727 9.0197 33.8611 9.27779 33.2751 9.27779Z" fill="black"/>
<path d="M21.653 11.9987C23.0275 11.9987 24.1419 10.8797 24.1419 9.49933C24.1419 8.11899 23.0275 7 21.653 7C20.2784 7 19.1641 8.11899 19.1641 9.49933C19.1641 10.8797 20.2784 11.9987 21.653 11.9987Z" fill="url(#paint0_linear_530_912)"/>
<path d="M21.653 12C23.0273 12 24.1419 10.8807 24.1419 9.50067C24.1419 8.12062 23.0286 7 21.653 7C20.2773 7 19.1641 8.11928 19.1641 9.49933C19.1641 10.8794 20.2787 12 21.653 12Z" fill="url(#paint1_radial_530_912)"/>
<path d="M35.7647 7.31392C35.7647 7.22165 35.7101 7.18555 35.5996 7.18555H35.4531V7.62684H35.5623V7.4423L35.6902 7.60812H35.818L35.6715 7.42492C35.7288 7.42358 35.7647 7.36875 35.7647 7.31392ZM35.5823 7.36875L35.5637 7.2591H35.5823C35.6369 7.2591 35.6555 7.27782 35.6555 7.31392C35.6555 7.35003 35.6183 7.36875 35.5823 7.36875Z" fill="black"/>
<path d="M35.6192 7C35.3995 7 35.2344 7.16582 35.2344 7.38647C35.2344 7.60711 35.3995 7.77293 35.6192 7.77293C35.8203 7.77293 36.0041 7.60711 36.0041 7.38647C35.9854 7.1832 35.8203 7 35.6192 7ZM35.6192 7.69805C35.4541 7.69805 35.3076 7.55095 35.3076 7.38513C35.3076 7.20193 35.4355 7.07221 35.6192 7.07221C35.7844 7.07221 35.9122 7.21931 35.9122 7.38513C35.9122 7.56967 35.7844 7.69805 35.6192 7.69805Z" fill="black"/>
<rect x="0.15" y="0.15" width="41.7" height="27.7" rx="3.85" stroke="#B4B4B4" stroke-width="0.3"/>
<defs>
<linearGradient id="paint0_linear_530_912" x1="22.9274" y1="11.5031" x2="21.1937" y2="8.80002" gradientUnits="userSpaceOnUse">
<stop stop-color="#F9A020"/>
<stop offset="0.2041" stop-color="#F99D20"/>
<stop offset="0.4348" stop-color="#F79320"/>
<stop offset="0.6196" stop-color="#F68820"/>
<stop offset="0.7969" stop-color="#F57E20"/>
<stop offset="1" stop-color="#F47521"/>
</linearGradient>
<radialGradient id="paint1_radial_530_912" cx="0" cy="0" r="1" gradientUnits="userSpaceOnUse" gradientTransform="translate(22.6447 11.3131) rotate(-117.709) scale(4.39746 3.40273)">
<stop stop-color="#FF932C"/>
<stop offset="0.5677" stop-color="#E86D20"/>
<stop offset="0.8604" stop-color="#E85718"/>
<stop offset="1" stop-color="#640000"/>
</radialGradient>
</defs>
</svg>
