<svg width="42" height="28" viewBox="0 0 42 28" fill="none" xmlns="http://www.w3.org/2000/svg">
<g clip-path="url(#clip0_529_820)">
<path d="M6.52051 0.174805H41.8252V22.3555C41.8252 25.347 39.0014 27.8251 35.4795 27.8252H0.174805V5.64453C0.174805 2.653 2.99859 0.174933 6.52051 0.174805Z" fill="white" stroke="#B4B4B4" stroke-width="0.35"/>
<path d="M30.4531 16.6177H33.1487C33.2257 16.6177 33.4054 16.5955 33.4825 16.5955C33.9959 16.5066 34.4323 16.1066 34.4323 15.551C34.4323 15.0177 33.9959 14.6177 33.4825 14.5066C33.4054 14.4844 33.2514 14.4844 33.1487 14.4844H30.4531V16.6177Z" fill="url(#paint0_linear_529_820)"/>
<path d="M32.8426 1.89453C30.2753 1.89453 28.1702 3.69453 28.1702 5.93898V10.139H34.768C34.922 10.139 35.1017 10.139 35.2301 10.1612C36.7191 10.2279 37.823 10.8945 37.823 12.0501C37.823 12.9612 37.0785 13.739 35.6922 13.8945V13.939C37.2069 14.0279 38.3621 14.7612 38.3621 15.8945C38.3621 17.1168 37.0785 17.9168 35.3841 17.9168H28.1445V26.139H34.9991C37.5663 26.139 39.6714 24.339 39.6714 22.0945V1.89453H32.8426Z" fill="url(#paint1_linear_529_820)"/>
<path d="M34.0986 12.3079C34.0986 11.7745 33.6622 11.419 33.1487 11.3523C33.0974 11.3523 32.969 11.3301 32.892 11.3301H30.4531V13.2856H32.892C32.969 13.2856 33.1231 13.2856 33.1487 13.2634C33.6622 13.1967 34.0986 12.8412 34.0986 12.3079Z" fill="url(#paint2_linear_529_820)"/>
<path d="M6.99492 1.89453C4.42768 1.89453 2.32255 3.69453 2.32255 5.93898V15.9168C3.63184 16.4723 4.99247 16.8279 6.35311 16.8279C7.97047 16.8279 8.84333 15.9834 8.84333 14.8279V10.1168H12.8482V14.8056C12.8482 16.6279 11.5389 18.1168 7.09761 18.1168C4.40201 18.1168 2.29688 17.6056 2.29688 17.6056V26.1168H9.1514C11.7186 26.1168 13.8238 24.3168 13.8238 22.0723V1.89453H6.99492Z" fill="url(#paint3_linear_529_820)"/>
<path d="M19.9224 1.89453C17.3551 1.89453 15.25 3.69453 15.25 5.93898V11.2279C16.4309 10.3612 18.4847 9.80564 21.7965 9.93898C23.5678 10.0056 25.4676 10.4279 25.4676 10.4279V12.139C24.5177 11.7168 23.3881 11.339 21.9248 11.2501C19.4089 11.0945 17.8943 12.1612 17.8943 14.0279C17.8943 15.9168 19.4089 16.9834 21.9248 16.8056C23.3881 16.7168 24.5177 16.3168 25.4676 15.9168V17.6279C25.4676 17.6279 23.5935 18.0501 21.7965 18.1168C18.4847 18.2501 16.4309 17.6945 15.25 16.8279V26.1612H22.1045C24.6718 26.1612 26.7769 24.3612 26.7769 22.1168V1.89453H19.9224Z" fill="url(#paint4_linear_529_820)"/>
</g>
<defs>
<linearGradient id="paint0_linear_529_820" x1="28.1632" y1="15.5533" x2="39.7011" y2="15.5533" gradientUnits="userSpaceOnUse">
<stop stop-color="#007940"/>
<stop offset="0.2285" stop-color="#00873F"/>
<stop offset="0.7433" stop-color="#40A737"/>
<stop offset="1" stop-color="#5CB531"/>
</linearGradient>
<linearGradient id="paint1_linear_529_820" x1="28.1656" y1="14.0067" x2="39.7029" y2="14.0067" gradientUnits="userSpaceOnUse">
<stop stop-color="#007940"/>
<stop offset="0.2285" stop-color="#00873F"/>
<stop offset="0.7433" stop-color="#40A737"/>
<stop offset="1" stop-color="#5CB531"/>
</linearGradient>
<linearGradient id="paint2_linear_529_820" x1="28.1632" y1="12.3045" x2="39.7001" y2="12.3045" gradientUnits="userSpaceOnUse">
<stop stop-color="#007940"/>
<stop offset="0.2285" stop-color="#00873F"/>
<stop offset="0.7433" stop-color="#40A737"/>
<stop offset="1" stop-color="#5CB531"/>
</linearGradient>
<linearGradient id="paint3_linear_529_820" x1="2.31671" y1="14.0067" x2="14.0321" y2="14.0067" gradientUnits="userSpaceOnUse">
<stop stop-color="#1F286F"/>
<stop offset="0.4751" stop-color="#004E94"/>
<stop offset="0.8261" stop-color="#0066B1"/>
<stop offset="1" stop-color="#006FBC"/>
</linearGradient>
<linearGradient id="paint4_linear_529_820" x1="15.1833" y1="14.0067" x2="26.5612" y2="14.0067" gradientUnits="userSpaceOnUse">
<stop stop-color="#6C2C2F"/>
<stop offset="0.1735" stop-color="#882730"/>
<stop offset="0.5731" stop-color="#BE1833"/>
<stop offset="0.8585" stop-color="#DC0436"/>
<stop offset="1" stop-color="#E60039"/>
</linearGradient>
<clipPath id="clip0_529_820">
<rect width="42" height="28" fill="white"/>
</clipPath>
</defs>
</svg>
