<svg width="42" height="28" viewBox="0 0 42 28" fill="none" xmlns="http://www.w3.org/2000/svg">
<rect width="42" height="28" rx="3.5" fill="#252525"/>
<path d="M24.7814 7.12305H17.2109V20.8736H24.7814V7.12305Z" fill="#FF5F00"/>
<path d="M17.6968 13.998C17.6968 11.3256 18.9225 8.7747 20.9893 7.12268C17.2402 4.13448 11.8086 4.79043 8.85256 8.60464C5.89647 12.3945 6.54537 17.8851 10.3186 20.8733C13.4669 23.3756 17.865 23.3756 21.0134 20.8733C18.9225 19.2213 17.6968 16.6703 17.6968 13.998Z" fill="#EB001B"/>
<path d="M35.003 13.998C35.003 18.8325 31.1336 22.7439 26.351 22.7439C24.4043 22.7439 22.5297 22.088 21.0156 20.8733C24.7648 17.8851 25.4137 12.3945 22.4576 8.58034C22.025 8.04587 21.5444 7.53569 21.0156 7.12268C24.7648 4.13448 30.2204 4.79043 33.1524 8.60464C34.3541 10.1352 35.003 12.0301 35.003 13.998Z" fill="#F79E1B"/>
<path d="M34.1839 19.4124V19.1209H34.304V19.0723H34.0156V19.1209H34.1358V19.4124H34.1839ZM34.7366 19.4124V19.0723H34.6405L34.5444 19.3152L34.4482 19.0723H34.3521V19.4124H34.4242V19.1451L34.5203 19.3638H34.5924L34.6886 19.1451V19.4124H34.7366Z" fill="#F79E1B"/>
</svg>
