<svg width="42" height="28" viewBox="0 0 42 28" fill="none" xmlns="http://www.w3.org/2000/svg">
<rect x="0.175" y="0.175" width="41.65" height="27.65" rx="3.325" fill="white"/>
<rect x="0.175" y="0.175" width="41.65" height="27.65" rx="3.325" stroke="#B4B4B4" stroke-width="0.35"/>
<path d="M25.2432 10.5C23.2577 10.5 21.475 11.4985 21.475 13.3309C21.475 15.4412 24.6241 15.5853 24.6241 16.6353C24.6241 17.0779 24.0904 17.4794 23.1937 17.4794C21.9127 17.4794 20.952 16.9235 20.952 16.9235L20.5463 18.7765C20.5463 18.7765 21.6458 19.25 23.1189 19.25C25.2966 19.25 27.0046 18.2103 27.0046 16.3368C27.0046 14.1132 23.8448 13.9691 23.8448 12.9912C23.8448 12.6412 24.2825 12.2603 25.1792 12.2603C26.1933 12.2603 27.0259 12.6618 27.0259 12.6618L27.4316 10.8706C27.4209 10.8706 26.5135 10.5 25.2432 10.5ZM7.05337 10.6338L7 10.9015C7 10.9015 7.83263 11.0456 8.59055 11.3441C9.56195 11.6838 9.626 11.8794 9.7968 12.4868L11.5795 19.1059H13.9706L17.6321 10.6338H15.2516L12.8925 16.3985L11.9318 11.5088C11.8464 10.9529 11.398 10.6338 10.8429 10.6338H7.05337ZM18.5928 10.6338L16.7247 19.1059H18.9985L20.8559 10.6338H18.5928ZM31.2531 10.6338C30.7087 10.6338 30.4205 10.9118 30.207 11.4059L26.8765 19.1059H29.257L29.716 17.8191H32.6195L32.8971 19.1059H35L33.1746 10.6338H31.2531ZM31.5627 12.9294L32.2673 16.1103H30.3778L31.5627 12.9294Z" fill="#1434CB"/>
</svg>
